<?xml version="1.0" standalone="no"?>
<!DOCTYPE svg PUBLIC "-//W3C//DTD SVG 20010904//EN"
 "http://www.w3.org/TR/2001/REC-SVG-20010904/DTD/svg10.dtd">
<svg version="1.0" xmlns="http://www.w3.org/2000/svg"
 width="640.000000pt" height="640.000000pt" viewBox="0 0 640.000000 640.000000"
 preserveAspectRatio="xMidYMid meet">
<metadata>
Created by potrace 1.14, written by Peter Selinger 2001-2017
</metadata>
<g transform="translate(0.000000,640.000000) scale(0.100000,-0.100000)"
fill="#000000" stroke="none">
<path d="M2000 6103 c-54 -35 -110 -98 -131 -147 -30 -69 -24 -174 14 -239 32
-55 86 -103 146 -131 38 -17 65 -21 156 -21 98 0 116 3 167 27 66 31 127 88
188 178 91 134 182 197 299 207 119 10 225 -37 292 -130 32 -44 59 -60 83 -51
8 3 33 30 55 59 31 41 57 61 108 87 61 30 76 33 153 33 137 0 217 -51 326
-206 66 -94 120 -143 193 -178 49 -23 68 -26 161 -26 95 0 110 3 156 27 65 34
138 115 158 175 22 63 20 158 -3 208 -47 105 -193 185 -222 121 -15 -31 -2
-52 47 -80 71 -40 105 -117 85 -193 -17 -64 -63 -118 -126 -148 -48 -24 -64
-27 -114 -22 -104 9 -167 54 -251 176 -130 192 -308 277 -497 237 -85 -17
-165 -55 -210 -98 l-32 -31 -43 36 c-97 80 -237 117 -359 97 -137 -23 -246
-99 -345 -241 -69 -98 -118 -142 -184 -164 -156 -52 -316 45 -315 191 1 64 29
111 95 158 35 25 50 43 50 59 0 47 -51 62 -100 30z"/>
<path d="M466 6078 c-14 -19 -16 -64 -16 -288 0 -288 4 -310 55 -310 51 0 55
15 55 231 0 109 4 199 9 199 5 0 66 -61 136 -135 70 -74 138 -138 150 -141 48
-12 82 33 56 74 -4 8 -93 99 -196 203 -198 198 -218 212 -249 167z"/>
<path d="M772 6088 c-7 -7 -12 -25 -12 -40 0 -22 6 -31 26 -39 32 -12 74 11
74 41 0 40 -60 66 -88 38z"/>
<path d="M1005 6076 c-22 -33 -6 -61 37 -70 18 -4 179 -6 358 -6 348 1 372 4
378 50 7 49 -4 50 -395 50 l-363 0 -15 -24z"/>
<path d="M4655 6076 c-19 -29 -10 -54 23 -67 38 -15 692 -11 722 4 30 15 37
49 15 71 -15 14 -58 16 -380 16 l-365 0 -15 -24z"/>
<path d="M5578 6089 c-11 -6 -18 -22 -18 -40 0 -39 41 -57 76 -34 57 37 0 108
-58 74z"/>
<path d="M5839 6063 c-70 -64 -359 -371 -359 -382 0 -17 38 -51 57 -51 9 0 80
63 158 140 77 77 143 140 147 140 3 0 6 -91 7 -202 1 -126 6 -207 13 -215 13
-16 42 -17 69 -3 18 10 19 24 19 300 0 276 -1 290 -19 300 -32 17 -49 12 -92
-27z"/>
<path d="M2165 5993 c-33 -8 -81 -50 -95 -82 -27 -67 20 -149 98 -170 99 -27
188 38 184 135 -3 82 -95 139 -187 117z m76 -109 c17 -21 0 -49 -31 -49 -27 0
-46 25 -37 49 8 21 51 21 68 0z"/>
<path d="M4156 5990 c-34 -11 -63 -36 -82 -72 -52 -100 60 -212 177 -177 120
36 135 185 24 239 -44 21 -72 24 -119 10z m88 -112 c8 -14 7 -21 -6 -34 -24
-24 -68 -11 -68 20 0 12 3 26 7 30 12 12 56 2 67 -16z"/>
<path d="M1172 5927 c-47 -15 -119 -81 -132 -123 -7 -20 -10 -61 -8 -92 6 -68
25 -86 83 -76 97 15 177 78 191 149 8 46 0 121 -16 140 -14 17 -68 18 -118 2z
m28 -117 c0 -22 -41 -70 -60 -70 -18 0 -1 42 26 68 31 27 34 27 34 2z"/>
<path d="M5106 5918 c-25 -35 -21 -126 7 -179 18 -34 36 -50 78 -71 30 -14 71
-29 92 -33 31 -5 41 -2 62 19 44 44 32 150 -23 210 -63 67 -186 97 -216 54z
m144 -129 c6 -11 10 -28 8 -37 -3 -14 -8 -13 -31 10 -33 33 -38 75 -7 58 11
-6 24 -20 30 -31z"/>
<path d="M2846 5790 c-87 -15 -187 -73 -255 -145 -61 -66 -74 -98 -49 -123 27
-27 60 -13 123 53 41 43 83 74 121 92 53 25 70 28 164 28 58 0 111 4 118 8 20
13 14 55 -10 71 -29 19 -148 27 -212 16z"/>
<path d="M3415 5795 c-5 -2 -27 -6 -47 -10 -47 -7 -66 -36 -45 -68 13 -20 23
-22 123 -22 99 0 114 -3 166 -28 34 -17 83 -54 120 -92 65 -67 93 -78 122 -49
28 28 17 53 -52 123 -77 77 -161 123 -256 140 -58 11 -110 13 -131 6z"/>
<path d="M3160 5740 c-11 -11 -20 -24 -20 -30 0 -14 38 -50 53 -50 22 0 57 30
57 49 0 22 -30 51 -53 51 -9 0 -26 -9 -37 -20z"/>
<path d="M1390 5678 c-42 -12 -70 -35 -70 -59 0 -23 77 -125 135 -178 162
-149 374 -193 572 -120 60 23 80 48 63 79 -11 20 -22 24 -99 35 -62 8 -134 45
-226 115 -91 69 -159 105 -236 125 -62 17 -89 17 -139 3z m152 -108 c29 -11
94 -50 144 -87 49 -38 101 -76 115 -86 l24 -18 -42 6 c-102 13 -236 90 -297
170 -32 42 -22 45 56 15z"/>
<path d="M4890 5676 c-68 -20 -137 -58 -230 -127 -100 -74 -171 -108 -245
-118 -62 -9 -85 -24 -85 -57 0 -28 30 -46 120 -69 187 -49 371 1 520 141 78
74 130 146 130 180 0 48 -120 77 -210 50z m70 -94 c0 -12 -89 -95 -139 -131
-47 -33 -155 -71 -200 -70 -24 0 -25 1 -7 12 10 7 58 41 105 76 116 86 241
145 241 113z"/>
<path d="M3130 5596 c-19 -13 -48 -46 -64 -73 l-30 -49 -103 -12 c-221 -25
-515 -109 -810 -232 -199 -83 -242 -94 -364 -88 -176 8 -360 91 -555 250 -53
43 -101 78 -108 78 -21 0 -56 -31 -56 -49 0 -9 18 -35 41 -56 109 -106 215
-284 245 -411 35 -148 3 -261 -112 -404 -87 -108 -173 -234 -227 -332 -37 -66
-38 -67 -94 -78 -270 -56 -469 131 -343 322 46 70 108 98 238 109 189 16 233
29 300 93 77 71 97 183 50 275 -27 52 -95 104 -161 122 -79 21 -229 -10 -242
-51 -16 -51 31 -70 112 -45 68 22 120 10 169 -39 59 -59 58 -132 -4 -194 -45
-45 -96 -62 -188 -62 -79 0 -188 -21 -233 -45 l-31 -16 0 369 c0 345 -1 370
-18 385 -23 21 -56 22 -76 1 -14 -14 -16 -67 -16 -438 0 -414 0 -423 -22 -467
-30 -60 -30 -166 -1 -230 57 -128 237 -212 412 -194 59 6 63 6 56 -12 -54
-128 -97 -293 -119 -452 -20 -144 -21 -428 -1 -559 65 -433 257 -816 573
-1144 198 -205 409 -357 677 -488 147 -72 367 -160 400 -160 8 0 16 -3 18 -7
3 -5 -50 -8 -116 -9 -285 -2 -545 -105 -734 -291 l-66 -65 -25 25 -25 25 22
11 c11 6 32 28 46 49 29 43 34 125 10 171 -33 65 -114 105 -199 99 -34 -2 -41
1 -44 17 -11 71 -73 161 -140 203 -59 38 -129 59 -257 77 -157 22 -247 62
-304 134 -83 104 -78 231 11 343 20 26 20 28 4 52 -48 74 -149 -28 -177 -178
-19 -105 22 -228 105 -311 l44 -43 -47 -18 c-190 -71 -293 -230 -315 -485 -5
-63 -4 -80 9 -93 22 -22 68 -20 89 3 24 26 76 47 191 76 130 33 196 67 256
133 65 71 91 169 53 206 -30 30 -84 11 -84 -30 0 -61 -46 -129 -115 -169 -29
-18 -254 -85 -282 -85 -21 0 32 164 73 226 90 135 239 177 497 139 126 -19
199 -52 244 -113 54 -71 54 -143 0 -223 -40 -59 -99 -93 -172 -97 -55 -4 -71
-1 -111 22 -57 32 -99 34 -114 6 -6 -12 -8 -29 -5 -40 7 -22 117 -80 152 -80
12 0 23 -3 23 -6 0 -4 -23 -29 -50 -56 -28 -27 -69 -77 -91 -111 -77 -114
-152 -177 -214 -177 l-25 0 0 183 c0 197 -3 207 -51 207 -56 0 -59 -11 -59
-245 0 -207 1 -215 22 -235 21 -20 31 -20 679 -20 362 0 665 3 673 6 9 4 31
39 50 79 68 147 178 227 352 255 118 19 261 -21 359 -99 47 -38 117 -129 109
-142 -3 -5 -27 -9 -54 -9 -46 0 -50 2 -84 49 -112 153 -345 177 -489 51 -44
-39 -87 -109 -87 -143 0 -23 44 -50 69 -42 11 3 33 29 48 58 40 73 103 111
186 111 61 -1 110 -17 150 -52 25 -22 21 -32 -11 -32 -49 0 -69 -42 -36 -74
13 -13 46 -16 205 -16 112 0 198 4 210 10 50 27 -6 166 -105 265 -64 64 -164
122 -251 146 -81 23 -256 18 -340 -8 -133 -42 -247 -134 -315 -255 l-36 -63
-129 -3 c-71 -1 -135 0 -142 2 -10 4 -7 19 12 63 79 180 250 346 446 430 222
96 477 108 704 32 191 -64 295 -145 308 -241 10 -70 51 -144 123 -218 38 -40
66 -78 71 -100 7 -25 17 -38 37 -45 25 -8 31 -6 52 18 13 16 24 35 24 42 0 8
28 45 62 82 66 74 118 169 118 219 0 24 13 46 59 95 70 76 161 126 309 166 86
24 114 27 252 27 129 0 169 -4 240 -23 208 -55 388 -173 507 -331 49 -64 116
-197 108 -210 -4 -6 -65 -10 -140 -10 l-134 0 -31 59 c-162 303 -587 386 -868
168 -81 -62 -172 -203 -172 -266 0 -10 8 -25 18 -34 16 -15 50 -17 276 -17
158 0 265 4 277 10 21 12 25 50 7 68 -8 8 -47 12 -110 12 -54 0 -98 4 -98 8 0
13 30 37 70 58 22 11 57 18 97 18 82 0 144 -37 183 -108 31 -59 48 -71 83 -62
60 15 34 112 -50 186 -144 126 -377 102 -489 -51 -34 -47 -38 -49 -85 -49 -60
0 -61 9 -11 75 73 97 173 154 307 175 196 31 413 -86 481 -260 34 -88 -37 -80
716 -80 442 0 676 4 689 10 18 10 19 24 19 238 0 244 -2 252 -50 252 -54 0
-60 -20 -60 -208 0 -143 -2 -172 -14 -172 -52 0 -131 67 -200 168 -25 37 -66
87 -91 112 -25 24 -45 47 -45 51 0 4 12 10 27 14 41 10 111 54 118 74 17 56
-36 75 -109 39 -74 -37 -101 -41 -162 -23 -94 27 -173 120 -174 203 0 74 60
157 139 191 54 23 231 51 320 51 156 -1 287 -74 349 -197 24 -46 52 -138 52
-168 l0 -22 -81 24 c-45 12 -88 23 -95 23 -8 0 -42 13 -77 28 -76 35 -133 95
-142 149 -3 21 -9 44 -14 52 -12 24 -47 31 -70 15 -30 -21 -28 -86 5 -152 46
-93 129 -146 292 -188 120 -30 149 -41 189 -71 37 -27 75 -30 98 -6 14 14 16
28 11 87 -26 272 -135 428 -349 500 -14 4 -10 13 27 50 84 83 126 207 107 310
-13 68 -49 142 -90 180 -26 25 -35 28 -58 20 -49 -17 -50 -36 -5 -103 126
-190 10 -395 -248 -439 -36 -6 -96 -16 -133 -22 -100 -16 -170 -45 -226 -96
-50 -45 -101 -130 -101 -169 0 -19 -6 -21 -62 -21 -122 -1 -200 -69 -200 -174
0 -55 20 -98 63 -134 l32 -27 -23 -24 -23 -25 -76 73 c-196 186 -410 273 -700
286 l-155 6 135 45 c164 55 428 184 569 278 531 355 873 857 972 1427 24 143
29 442 9 570 -24 155 -92 389 -137 477 -8 15 -14 28 -14 30 0 2 48 3 108 4 84
1 119 5 162 22 78 31 148 88 183 150 25 44 29 64 28 115 0 34 -3 282 -6 552
-4 327 -9 493 -17 502 -13 16 -60 17 -76 1 -9 -9 -12 -110 -12 -393 0 -210 -3
-384 -6 -387 -3 -3 -24 5 -47 17 -56 32 -119 45 -256 55 -102 7 -117 10 -153
36 -78 55 -97 135 -48 204 42 59 120 77 205 47 47 -17 80 -8 90 24 14 43 -77
89 -174 89 -53 0 -132 -31 -172 -67 -111 -100 -108 -251 6 -351 58 -51 126
-72 255 -79 166 -9 247 -50 291 -148 65 -143 -44 -282 -231 -293 -42 -2 -101
1 -131 7 -54 11 -58 14 -84 64 -44 82 -148 236 -220 328 -100 126 -135 210
-135 322 1 144 94 332 247 499 29 32 53 62 53 68 0 15 -38 50 -54 50 -7 0 -33
-16 -57 -35 -181 -145 -249 -189 -379 -242 -106 -43 -182 -56 -297 -51 -77 3
-111 10 -158 30 -33 14 -116 51 -185 81 -262 114 -549 193 -770 213 l-75 6
-30 50 c-37 61 -87 98 -135 98 -21 0 -50 -10 -70 -24z m106 -114 c53 -77 114
-287 114 -387 0 -79 -45 -132 -127 -150 -87 -18 -183 60 -183 147 1 89 73 321
122 394 28 41 45 40 74 -4z m-247 -119 c0 -5 -12 -55 -27 -113 l-27 -104 -85
-12 c-273 -40 -584 -152 -819 -296 -66 -40 -78 -45 -103 -36 -16 6 -59 8 -96
5 l-67 -5 -142 146 c-78 81 -140 148 -139 150 2 1 21 -4 43 -12 90 -32 206
-49 298 -43 101 6 176 27 315 88 110 48 276 108 406 149 184 57 445 106 443
83z m551 -8 c216 -35 444 -108 696 -221 151 -68 247 -94 349 -94 71 0 187 20
254 44 24 9 46 14 49 11 3 -3 -57 -68 -133 -144 -126 -128 -140 -139 -162
-130 -33 12 -91 10 -133 -5 -33 -12 -38 -11 -100 27 -108 67 -301 155 -442
202 -127 42 -357 95 -411 95 -38 0 -57 10 -57 29 0 19 -33 153 -45 184 -9 22
8 22 135 2z m-591 -346 c17 -57 85 -122 150 -144 65 -21 68 -49 6 -52 -335
-21 -659 -126 -915 -297 -45 -31 -86 -56 -90 -56 -3 0 -21 16 -40 35 l-33 34
17 53 c12 41 14 61 6 88 -5 19 -10 40 -10 46 0 14 135 94 252 149 179 84 467
168 629 184 10 0 20 -13 28 -40z m719 4 c63 -13 166 -42 230 -64 123 -42 378
-163 424 -201 26 -22 27 -26 18 -65 -8 -33 -6 -53 6 -89 l16 -47 -74 -76 c-40
-42 -142 -146 -226 -232 -83 -85 -152 -161 -152 -168 0 -30 21 -51 52 -51 27
0 58 28 255 229 l224 230 67 -6 c49 -4 77 -1 104 10 l37 16 62 -67 c73 -80
182 -224 233 -309 98 -164 189 -407 211 -564 7 -46 7 -47 -28 -58 -49 -17
-112 -74 -137 -126 -18 -38 -26 -45 -51 -45 -16 0 -29 5 -29 13 0 6 -7 59 -15
117 -23 176 -84 358 -169 509 -88 155 -243 345 -292 357 -27 7 -64 -18 -64
-43 0 -8 28 -45 62 -83 140 -157 242 -329 302 -511 31 -93 72 -287 62 -296 -1
-2 -139 118 -305 267 -219 196 -308 270 -326 270 -27 0 -55 -33 -48 -58 2 -9
148 -145 323 -302 175 -157 319 -288 319 -291 1 -8 -1549 -1404 -1559 -1404
-10 0 -1560 1396 -1559 1404 0 3 142 132 314 286 174 155 317 290 321 303 8
30 -12 52 -48 52 -25 0 -79 -44 -323 -265 -162 -146 -296 -261 -298 -257 -8
13 31 206 58 287 62 190 176 375 324 528 52 53 98 97 103 97 4 0 72 -65 149
-145 113 -115 147 -145 168 -145 15 0 32 5 39 12 29 29 12 57 -130 203 l-142
147 24 19 c49 38 191 121 272 158 110 51 241 94 360 120 97 21 238 38 238 29
0 -3 -106 -99 -235 -214 -198 -176 -235 -213 -235 -236 0 -27 23 -48 54 -48 9
0 118 91 242 203 331 294 301 271 322 255 10 -7 123 -107 251 -223 128 -115
241 -214 252 -219 12 -6 28 -5 45 3 20 9 25 17 22 40 -2 23 -45 66 -223 226
-121 109 -224 202 -230 208 -14 14 117 1 233 -23 142 -30 292 -84 431 -155 69
-36 135 -65 147 -65 50 0 60 57 14 90 -52 37 -272 138 -369 170 -125 40 -312
78 -434 86 -92 7 -98 8 -95 28 2 13 14 24 36 30 50 14 128 89 148 142 l17 45
46 -7 c25 -3 97 -17 159 -31z m-1998 -312 c-8 -24 -11 -61 -7 -94 5 -54 5 -55
-40 -98 -116 -113 -254 -309 -333 -474 -63 -131 -102 -244 -135 -391 -15 -65
-28 -120 -30 -122 -2 -2 -38 -13 -81 -24 -43 -10 -89 -25 -103 -32 -14 -8 -37
-17 -50 -21 l-24 -7 7 78 c29 328 190 700 421 969 110 129 154 252 142 404 -3
42 -9 86 -13 96 -4 11 53 -39 127 -112 l133 -132 -14 -40z m3269 215 c-21
-153 21 -286 132 -424 180 -223 318 -478 393 -724 33 -109 73 -314 64 -324 -3
-2 -29 6 -59 20 -30 13 -87 31 -127 41 -58 14 -73 22 -76 39 -74 377 -228 689
-464 937 l-83 87 10 42 c9 41 -1 104 -19 124 -8 8 229 271 237 263 2 -2 -2
-39 -8 -81z m-338 -215 c36 -36 37 -60 3 -100 -21 -26 -33 -31 -67 -31 -45 1
-67 13 -85 47 -18 34 -14 52 17 84 22 21 39 29 66 29 27 0 44 -8 66 -29z
m-2702 4 c37 -19 58 -67 43 -100 -27 -58 -122 -69 -162 -18 -24 31 -26 61 -4
91 28 41 77 52 123 27z m-36 -240 c87 -1 89 -2 123 -37 l36 -35 -67 -64 c-212
-202 -358 -456 -429 -744 -12 -48 -36 -214 -36 -247 0 -5 -11 -8 -24 -8 -19 0
-26 7 -31 32 -10 44 -91 121 -146 140 -44 15 -44 15 -41 59 6 102 69 289 152
454 74 147 144 251 255 379 66 75 80 87 99 80 11 -4 61 -8 109 -9z m-596
-1062 c95 -44 96 -189 1 -240 -62 -33 -210 -13 -323 44 -38 19 -85 63 -85 79
0 23 73 73 145 99 124 46 193 50 262 18z m4028 16 c105 -19 245 -96 245 -134
0 -21 -55 -64 -120 -94 -85 -39 -176 -55 -229 -41 -149 40 -158 214 -14 265
47 17 46 17 118 4z m-3800 -246 c45 -435 241 -787 589 -1061 16 -12 27 -24 25
-26 -2 -2 -38 2 -79 10 -41 7 -133 17 -204 20 l-128 7 -65 76 c-123 144 -244
346 -307 514 -34 91 -75 244 -78 296 -3 43 -2 44 38 58 55 18 119 74 140 123
13 30 24 40 40 40 20 0 23 -6 29 -57z m3489 31 c10 -39 82 -110 132 -131 44
-18 45 -18 39 -58 -41 -268 -192 -587 -388 -816 l-65 -76 -133 -7 c-74 -3
-167 -12 -206 -20 -40 -7 -73 -10 -73 -7 0 3 22 22 47 41 133 99 306 306 400
478 78 141 143 340 157 482 15 142 14 140 51 140 27 0 34 -5 39 -26z m-2645
-697 c397 -357 724 -653 727 -659 15 -23 -265 26 -408 72 -144 47 -357 157
-479 249 -296 223 -506 553 -559 876 -6 39 -13 81 -16 93 -3 14 -1 22 5 20 6
-1 334 -295 730 -651z m2449 591 c-48 -361 -255 -696 -578 -938 -111 -82 -331
-196 -468 -240 -139 -45 -413 -94 -411 -73 1 9 1450 1313 1460 1313 3 0 2 -28
-3 -62z m-3836 3 c40 -16 91 -32 113 -35 22 -4 46 -10 52 -14 6 -4 23 -61 38
-126 61 -274 185 -531 356 -741 26 -32 47 -60 45 -62 -1 -1 -37 -7 -79 -13
-42 -6 -99 -17 -127 -24 l-50 -13 -34 41 c-105 129 -243 380 -304 557 -50 142
-111 459 -89 459 3 0 38 -13 79 -29z m4574 -38 c-31 -306 -165 -642 -364 -909
l-59 -80 -104 19 c-57 10 -116 22 -131 26 l-28 6 41 50 c196 243 324 525 384
850 3 16 21 24 88 42 46 11 101 30 123 41 21 11 43 20 48 21 5 1 6 -29 2 -66z
m-3616 -1047 c217 -27 321 -53 615 -151 301 -100 407 -119 675 -119 276 0 423
27 689 126 152 56 347 108 508 135 191 32 623 19 623 -18 0 -6 -29 -40 -64
-76 l-65 -66 -48 7 c-192 25 -242 28 -373 23 -407 -16 -789 -159 -1142 -429
l-78 -59 0 55 c0 47 -4 58 -24 71 -17 11 -30 13 -48 6 -30 -11 -38 -29 -38
-83 l0 -41 -32 27 c-92 73 -288 197 -411 257 -212 103 -422 164 -658 190 -121
13 -349 6 -454 -15 l-70 -14 -72 71 c-40 39 -69 75 -65 79 15 15 193 36 307
37 61 1 162 -5 225 -13z m288 -265 c316 -66 611 -213 886 -440 l66 -55 0 -72
c0 -104 -13 -104 -118 1 -312 314 -729 482 -1147 461 l-121 -5 -69 52 c-38 29
-70 57 -73 64 -5 17 61 21 283 18 148 -2 213 -8 293 -24z m2515 22 c42 -3 66
-10 64 -17 -2 -6 -34 -34 -72 -63 l-68 -52 -116 6 c-247 12 -488 -40 -726
-156 -152 -75 -270 -158 -407 -290 -71 -68 -113 -101 -123 -97 -11 4 -15 22
-15 75 l0 70 78 67 c275 236 658 411 992 453 81 11 303 13 393 4z m-2483 -248
c266 -58 511 -194 718 -398 45 -45 82 -86 82 -92 -1 -5 -10 -21 -20 -34 l-20
-24 -93 90 c-190 184 -417 301 -685 354 -82 16 -127 31 -192 66 -47 25 -89 50
-95 55 -15 15 216 2 305 -17z m2245 16 c-6 -5 -48 -29 -95 -54 -63 -34 -111
-51 -186 -66 -276 -56 -491 -167 -693 -357 l-93 -88 -19 25 c-10 13 -19 27
-19 30 0 3 48 53 108 110 217 211 468 343 747 393 90 16 264 21 250 7z m-3034
-440 c36 -36 37 -60 3 -100 -21 -26 -33 -31 -67 -31 -45 1 -67 13 -85 47 -18
32 -15 48 14 82 36 43 93 44 135 2z m3643 8 c20 -16 26 -29 26 -59 0 -49 -35
-80 -92 -80 -79 0 -117 84 -62 135 34 32 91 33 128 4z m-1814 -135 c43 -39 70
-89 70 -131 0 -44 -42 -123 -95 -177 l-48 -50 -49 53 c-27 29 -58 70 -68 92
-42 82 -15 170 71 235 49 37 55 35 119 -22z m2065 -113 c74 -33 129 -83 204
-190 38 -53 76 -103 85 -110 9 -7 16 -16 16 -20 0 -3 -137 -5 -305 -3 -214 2
-305 6 -305 14 0 6 -20 53 -45 105 -49 105 -49 114 12 159 102 75 231 92 338
45z m-3983 -11 c25 -11 60 -36 78 -55 l33 -35 -27 -50 c-15 -28 -38 -77 -51
-108 l-23 -57 -286 -5 c-157 -3 -286 -4 -286 -2 0 2 19 29 43 60 23 31 55 76
71 99 57 85 154 156 236 174 57 13 163 2 212 -21z"/>
<path d="M4562 4378 c-23 -23 -12 -48 55 -120 85 -93 190 -254 238 -364 37
-86 75 -219 75 -260 0 -48 61 -72 95 -38 19 20 14 68 -22 194 -47 167 -156
362 -289 515 -59 68 -75 80 -104 83 -20 2 -41 -3 -48 -10z"/>
<path d="M3100 3779 c-112 -19 -223 -95 -273 -188 -15 -28 -34 -81 -42 -118
-18 -82 -20 -319 -4 -412 42 -245 271 -376 553 -316 119 25 210 95 242 184 8
22 13 86 14 163 l0 128 28 6 c100 24 242 125 242 172 0 20 -26 42 -49 42 -6 0
-34 -21 -62 -46 -79 -70 -132 -89 -283 -103 -103 -10 -161 -32 -224 -87 -81
-69 -101 -136 -45 -150 22 -6 33 2 79 54 42 46 67 66 110 81 88 33 84 38 84
-104 0 -144 -8 -169 -71 -214 -52 -39 -124 -54 -217 -49 -94 6 -163 38 -216
100 -53 61 -68 119 -73 288 -8 235 21 351 107 421 148 123 442 72 466 -81 12
-71 54 -98 102 -64 41 29 21 115 -44 184 -89 96 -251 137 -424 109z"/>
<path d="M1703 4317 c-136 -147 -258 -363 -308 -547 -39 -146 -33 -190 26
-190 36 0 48 18 60 89 29 184 156 425 314 598 45 50 56 68 53 90 -3 24 -8 28
-39 31 -33 3 -41 -3 -106 -71z"/>
<path d="M922 5588 c-16 -16 -15 -53 2 -67 21 -18 66 -9 82 14 12 18 11 24 -2
43 -17 24 -62 30 -82 10z"/>
<path d="M5372 5588 c-16 -16 -15 -53 2 -67 21 -18 66 -9 82 14 12 18 11 24
-2 43 -17 24 -62 30 -82 10z"/>
<path d="M807 5433 c-106 -35 -168 -128 -153 -225 9 -57 21 -68 73 -68 77 0
154 46 189 112 8 15 14 56 14 93 0 52 -4 69 -20 85 -24 24 -39 24 -103 3z m17
-125 c-8 -29 -22 -46 -46 -59 -28 -15 -24 26 7 56 31 32 49 33 39 3z"/>
<path d="M5499 5431 c-21 -17 -24 -28 -24 -88 0 -59 4 -76 27 -110 35 -53 113
-93 180 -93 46 0 50 2 64 35 29 69 6 156 -54 207 -30 25 -128 68 -156 68 -8 0
-24 -9 -37 -19z m126 -126 c14 -13 25 -33 25 -45 0 -17 -3 -19 -19 -10 -37 19
-67 80 -41 80 6 0 22 -11 35 -25z"/>
<path d="M700 4471 c-52 -28 -75 -64 -75 -121 0 -60 24 -96 86 -128 34 -18 54
-22 87 -18 92 12 142 64 142 148 0 52 -29 97 -81 123 -39 21 -117 19 -159 -4z
m120 -91 c24 -24 25 -38 3 -62 -31 -34 -93 -13 -93 32 0 20 35 50 57 50 7 0
22 -9 33 -20z"/>
<path d="M5514 4471 c-51 -31 -74 -68 -74 -120 0 -161 230 -205 306 -59 33 63
2 146 -66 180 -47 24 -126 23 -166 -1z m114 -87 c43 -30 19 -84 -37 -84 -18 0
-51 34 -51 52 0 13 39 48 53 48 7 0 23 -7 35 -16z"/>
<path d="M450 3961 c-6 -13 -10 -182 -10 -480 0 -500 -1 -491 55 -491 55 0 55
-4 55 442 l0 410 23 -6 c12 -4 52 -12 89 -18 81 -14 118 -2 118 36 0 32 -14
41 -94 55 -67 12 -138 40 -151 61 -11 18 -73 12 -85 -9z"/>
<path d="M5847 3960 c-34 -27 -92 -47 -162 -55 -46 -6 -59 -12 -67 -31 -9 -19
-8 -28 7 -44 24 -27 85 -26 197 5 l27 7 0 -412 c1 -292 4 -417 12 -426 14 -17
61 -18 77 -2 17 17 17 949 0 966 -18 18 -62 14 -91 -8z"/>
<path d="M456 2904 c-35 -34 -12 -74 41 -74 26 0 36 6 45 25 22 48 -48 88 -86
49z"/>
<path d="M5862 2908 c-16 -16 -15 -53 2 -67 21 -18 66 -9 82 14 12 18 11 24
-2 43 -17 24 -62 30 -82 10z"/>
<path d="M5792 2764 c-27 -19 -29 -60 -3 -74 31 -16 137 -13 155 6 41 41 1 84
-79 84 -30 0 -60 -6 -73 -16z"/>
<path d="M452 2758 c-15 -15 -15 -51 0 -66 18 -18 143 -16 162 4 19 18 21 45
4 62 -16 16 -150 16 -166 0z"/>
<path d="M5750 2627 c-30 -15 -37 -48 -15 -71 13 -12 36 -16 104 -16 98 0 125
12 119 50 -4 34 -42 50 -118 50 -36 0 -76 -6 -90 -13z"/>
<path d="M452 2618 c-15 -15 -15 -51 0 -66 8 -8 46 -12 103 -12 76 0 95 3 108
18 21 23 21 36 1 56 -19 20 -193 23 -212 4z"/>
<path d="M452 2478 c-15 -15 -15 -51 0 -66 8 -8 53 -12 138 -12 132 0 150 5
150 45 0 40 -18 45 -150 45 -85 0 -130 -4 -138 -12z"/>
<path d="M5672 2478 c-7 -7 -12 -21 -12 -33 0 -40 18 -45 150 -45 132 0 150 5
150 45 0 40 -18 45 -150 45 -85 0 -130 -4 -138 -12z"/>
<path d="M452 2338 c-15 -15 -15 -51 0 -66 8 -8 62 -12 178 -12 171 0 190 4
190 41 0 43 -23 49 -194 49 -113 0 -166 -4 -174 -12z"/>
<path d="M5592 2338 c-7 -7 -12 -21 -12 -33 0 -41 16 -45 190 -45 174 0 190 4
190 45 0 41 -16 45 -190 45 -116 0 -170 -4 -178 -12z"/>
<path d="M452 2198 c-7 -7 -12 -25 -12 -40 0 -42 28 -48 236 -48 171 0 185 1
204 20 25 25 25 42 2 63 -16 15 -46 17 -218 17 -142 0 -203 -3 -212 -12z"/>
<path d="M5512 2198 c-7 -7 -12 -21 -12 -33 0 -42 14 -45 230 -45 216 0 230 3
230 45 0 42 -14 45 -230 45 -147 0 -209 -3 -218 -12z"/>
<path d="M766 2054 c-22 -22 -20 -50 6 -68 16 -11 46 -16 98 -16 85 0 120 16
120 55 0 35 -28 45 -124 45 -64 0 -88 -4 -100 -16z"/>
<path d="M5422 2058 c-17 -17 -15 -65 4 -72 9 -3 58 -6 110 -6 91 0 95 1 106
25 9 21 8 28 -7 45 -16 17 -31 20 -110 20 -57 0 -95 -4 -103 -12z"/>
<path d="M687 1912 c-23 -25 -21 -48 5 -66 18 -13 56 -16 205 -16 170 0 184 1
203 20 11 11 20 25 20 30 0 6 -9 19 -20 30 -19 19 -33 20 -208 20 -170 0 -191
-2 -205 -18z"/>
<path d="M5295 1914 c-22 -23 -15 -56 15 -71 30 -15 345 -18 383 -4 32 13 41
39 22 67 -15 24 -17 24 -210 24 -165 0 -196 -2 -210 -16z"/>
<path d="M680 1770 c-11 -11 -20 -24 -20 -30 0 -14 38 -50 53 -50 22 0 57 30
57 49 0 22 -30 51 -53 51 -9 0 -26 -9 -37 -20z"/>
<path d="M908 1779 c-25 -14 -24 -65 1 -79 11 -5 84 -10 165 -10 133 0 148 2
166 20 11 11 20 25 20 30 0 6 -9 19 -20 30 -18 18 -33 20 -167 20 -82 0 -156
-5 -165 -11z"/>
<path d="M5156 1774 c-22 -22 -20 -50 6 -68 18 -13 52 -16 163 -16 111 0 145
3 163 16 26 18 28 46 6 68 -23 23 -315 23 -338 0z"/>
<path d="M5648 1779 c-26 -15 -22 -56 6 -74 35 -24 76 -5 76 34 0 43 -42 64
-82 40z"/>
<path d="M1038 1639 c-28 -16 -23 -67 7 -81 56 -25 101 35 57 75 -21 19 -39
21 -64 6z"/>
<path d="M1190 1630 c-25 -25 -25 -42 -2 -63 15 -13 39 -17 115 -17 101 0 127
10 127 50 0 36 -38 50 -132 50 -75 0 -91 -3 -108 -20z"/>
<path d="M4988 1639 c-25 -14 -24 -65 1 -79 11 -5 59 -10 106 -10 102 0 125 9
125 50 0 19 -7 33 -19 40 -25 13 -191 13 -213 -1z"/>
<path d="M5290 1630 c-11 -11 -20 -24 -20 -30 0 -17 39 -50 58 -50 22 0 52 30
52 52 0 19 -32 48 -53 48 -9 0 -26 -9 -37 -20z"/>
</g>
</svg>
